<svg width="192" height="192" viewBox="0 0 192 192" fill="none" xmlns="http://www.w3.org/2000/svg">
<path d="M191 108.212C190.902 150.166 156.623 186.487 114.435 189.338C93.243 190.77 74.0868 183.484 60.2808 170.56L24.8757 137.268L130.205 20.4312L170.036 57.234C183.069 69.9819 191.048 87.8945 191 108.212Z" fill="#3A3F9D"/>
<path d="M147.379 73.9629C147.29 112.15 115.942 145.437 77.4177 148.04C39.2677 150.618 8.67777 122.111 8.7661 84.3204C8.85535 46.133 40.2034 12.8465 78.7277 10.2431C116.878 7.66495 147.468 36.1728 147.379 73.9629Z" fill="#5250DF" stroke="#3A3F9D" stroke-width="14.162"/>
<path d="M68.1333 89.768L68.202 87.8012C68.2993 85.0149 68.9258 82.7012 70.0814 80.8602C71.2917 79.0172 73.1743 77.4509 75.7294 76.1612L77.1455 75.4569C79.6441 74.2238 81.5718 72.9287 82.9288 71.5717C84.2858 70.2147 85.0025 68.4435 85.0788 66.2582C85.1341 64.6738 84.7711 63.3496 83.9897 62.2856C83.2649 61.165 82.2028 60.329 80.8033 59.7777C79.4038 59.2263 77.748 58.984 75.8358 59.0508C73.869 59.1195 72.082 59.5093 70.4748 60.2202C68.9221 60.9292 67.6585 61.9555 66.684 63.2992C65.7641 64.6409 65.2698 66.2952 65.2011 68.262L65.1381 70.0649L54.4846 70.4369L54.5418 68.7979C54.6735 65.0282 55.7158 61.7451 57.6687 58.9485C59.6216 56.152 62.2073 53.9882 65.4256 52.457C68.6458 50.8713 72.2228 50.0097 76.1564 49.8724C80.0353 49.7369 83.4524 50.3269 86.4077 51.6425C89.4175 52.9561 91.7527 54.839 93.4132 57.2911C95.0737 59.7431 95.8467 62.6082 95.7323 65.8862C95.6178 69.1642 94.9224 71.8895 93.6461 74.0622C92.3716 76.1802 90.7828 77.9273 88.8794 79.3034C87.0327 80.6229 85.137 81.7804 83.1924 82.776L81.7763 83.4802C80.7777 83.9516 80.0757 84.5218 79.6703 85.1908C79.2669 85.8051 79.0442 86.7132 79.0022 87.9151L78.9507 89.3902L68.1333 89.768ZM73.1716 109.563C70.9862 109.64 69.1535 108.994 67.6734 107.627C66.2498 106.204 65.578 104.345 65.6582 102.05C65.7383 99.7555 66.5407 97.8722 68.0654 96.4002C69.6467 94.8717 71.53 94.0693 73.7153 93.993C75.9553 93.9148 77.787 94.5874 79.2106 96.011C80.6361 97.38 81.3088 99.2118 81.2287 101.506C81.1485 103.801 80.3452 105.712 78.8186 107.238C77.2939 108.71 75.4115 109.485 73.1716 109.563Z" fill="white"/>
</svg>
