<svg width="192" height="192" viewBox="0 0 192 192" fill="none" xmlns="http://www.w3.org/2000/svg">
<path d="M191 108.212C190.902 150.166 156.623 186.487 114.435 189.338C93.243 190.77 74.0867 183.484 60.2808 170.56L24.8757 137.268L130.205 20.4312L170.036 57.234C183.069 69.9819 191.048 87.8945 191 108.212Z" fill="#D34849"/>
<path d="M147.379 73.9629C147.29 112.15 115.942 145.437 77.4177 148.04C39.2677 150.618 8.67777 122.111 8.7661 84.3204C8.85535 46.133 40.2034 12.8465 78.7277 10.2431C116.878 7.66495 147.468 36.1728 147.379 73.9629Z" fill="#E46E86" stroke="#D34849" stroke-width="14.162"/>
<path d="M71.1355 91.1482L71.2764 87.1148C71.3472 85.0871 71.7773 83.4871 72.5667 82.3148C73.3576 81.0984 74.7154 80.0384 76.6402 79.1347L78.5193 78.2765C80.8454 77.2267 82.6707 76.0183 83.9952 74.6512C85.3213 73.24 86.0266 71.3222 86.1113 68.8978C86.1744 67.0905 85.7647 65.5858 84.8821 64.3839C83.9995 63.182 82.7762 62.2781 81.2124 61.6723C79.6486 61.0665 77.8749 60.7982 75.8912 60.8675C73.9076 60.9368 72.0439 61.3541 70.3001 62.1194C68.6019 62.8391 67.1992 63.9227 66.092 65.3703C65.0304 66.7722 64.4627 68.5311 64.3888 70.647L64.308 72.9612L58.9522 73.1483L59.033 70.834C59.1392 67.7924 59.9338 65.2111 61.4167 63.09C62.9453 60.9233 64.9623 59.2679 67.4678 58.1238C70.0189 56.934 72.8813 56.2837 76.0552 56.1729C79.1849 56.0636 81.92 56.5404 84.2603 57.6034C86.6463 58.6208 88.4658 60.0982 89.719 62.0356C91.0178 63.9275 91.6225 66.1518 91.5332 68.7085C91.4455 71.2211 90.8875 73.3318 89.8592 75.0408C88.8766 76.7041 87.6166 78.113 86.0794 79.2673C84.5437 80.3776 82.8583 81.361 81.0233 82.2176L79.2103 83.0734C78.3604 83.4553 77.7492 83.9389 77.3765 84.5243C77.0039 85.1097 76.7991 85.9313 76.7621 86.9893L76.6236 90.9565L71.1355 91.1482ZM73.5146 104.339C72.1922 104.385 71.1268 104.004 70.3185 103.196C69.5102 102.388 69.1292 101.322 69.1754 100C69.2216 98.6776 69.678 97.583 70.5448 96.7162C71.4116 95.8495 72.5062 95.393 73.8286 95.3468C75.107 95.3022 76.1503 95.684 76.9586 96.4923C77.811 97.299 78.2141 98.3636 78.1679 99.686C78.1217 101.008 77.6432 102.104 76.7323 102.972C75.8655 103.839 74.793 104.295 73.5146 104.339Z" fill="white"/>
</svg>
